<svg width="180" height="43" viewBox="0 0 180 43" fill="none" xmlns="http://www.w3.org/2000/svg">
<path d="M21.6667 17.1911L43.3336 0.000202179L64.9999 17.1911L43.3336 34.3823L21.6667 17.1911Z" fill="white"/>
<path d="M0 17.1911L21.6668 0.000198364L43.3336 17.1911L21.6668 34.3823L0 17.1911Z" fill="#3B557D"/>
<path d="M79.333 40.7183L78.5596 37.7749H73.457L72.6621 40.7183H68L73.124 24.9487H78.7852L83.9736 40.7183H79.333ZM77.6787 34.2944L77.002 31.7163C76.8444 31.1434 76.651 30.4022 76.4219 29.4927C76.1999 28.5832 76.0531 27.9315 75.9814 27.5376C75.917 27.9028 75.7881 28.5044 75.5947 29.3423C75.4085 30.1802 74.9896 31.8309 74.3379 34.2944H77.6787ZM100.635 40.7183H95.0703L89.334 29.6538H89.2373C89.3734 31.394 89.4414 32.7225 89.4414 33.6392V40.7183H85.6816V25.0132H91.2246L96.9395 35.9272H97.0039C96.9036 34.3446 96.8535 33.0734 96.8535 32.1138V25.0132H100.635V40.7183ZM113.665 40.7183L112.892 37.7749H107.789L106.994 40.7183H102.332L107.456 24.9487H113.117L118.306 40.7183H113.665ZM112.011 34.2944L111.334 31.7163C111.176 31.1434 110.983 30.4022 110.754 29.4927C110.532 28.5832 110.385 27.9315 110.313 27.5376C110.249 27.9028 110.12 28.5044 109.927 29.3423C109.741 30.1802 109.322 31.8309 108.67 34.2944H112.011ZM130.283 35.9487C130.283 36.9227 130.036 37.7892 129.542 38.5483C129.048 39.3003 128.335 39.8875 127.404 40.3101C126.473 40.7254 125.381 40.9331 124.128 40.9331C123.082 40.9331 122.205 40.8615 121.496 40.7183C120.787 40.5679 120.049 40.3101 119.283 39.9448V36.1636C120.092 36.5789 120.934 36.9048 121.808 37.1411C122.681 37.3703 123.483 37.4849 124.214 37.4849C124.844 37.4849 125.306 37.3774 125.6 37.1626C125.893 36.9406 126.04 36.6577 126.04 36.314C126.04 36.0991 125.979 35.9129 125.857 35.7554C125.743 35.5907 125.553 35.4259 125.288 35.2612C125.03 35.0965 124.336 34.7599 123.204 34.2515C122.18 33.786 121.41 33.3348 120.895 32.8979C120.386 32.4611 120.007 31.9598 119.756 31.394C119.512 30.8283 119.391 30.1587 119.391 29.3853C119.391 27.9386 119.917 26.8107 120.97 26.0015C122.022 25.1922 123.469 24.7876 125.31 24.7876C126.935 24.7876 128.593 25.1636 130.283 25.9155L128.983 29.1919C127.515 28.5187 126.248 28.1821 125.181 28.1821C124.629 28.1821 124.228 28.2788 123.978 28.4722C123.727 28.6655 123.602 28.9054 123.602 29.1919C123.602 29.4998 123.759 29.7756 124.074 30.019C124.396 30.2625 125.263 30.7065 126.674 31.3511C128.027 31.9598 128.965 32.6151 129.488 33.3169C130.018 34.0116 130.283 34.8888 130.283 35.9487ZM147.406 32.8442C147.406 35.4868 146.758 37.4956 145.462 38.8706C144.166 40.2456 142.268 40.9331 139.769 40.9331C137.305 40.9331 135.414 40.242 134.097 38.8599C132.786 37.4777 132.131 35.4653 132.131 32.8228C132.131 30.2088 132.783 28.2144 134.086 26.8394C135.396 25.4572 137.298 24.7661 139.79 24.7661C142.289 24.7661 144.184 25.45 145.473 26.8179C146.762 28.1857 147.406 30.1945 147.406 32.8442ZM136.6 32.8442C136.6 35.8807 137.656 37.3989 139.769 37.3989C140.843 37.3989 141.638 37.0301 142.153 36.2925C142.676 35.5549 142.938 34.4054 142.938 32.8442C142.938 31.2759 142.673 30.1193 142.143 29.3745C141.62 28.6226 140.836 28.2466 139.79 28.2466C137.663 28.2466 136.6 29.7791 136.6 32.8442ZM159.062 25.0132H163.81L158.664 40.7183H153.669L148.545 25.0132H153.314L155.452 32.9731C155.896 34.742 156.14 35.9738 156.183 36.6685C156.233 36.1672 156.333 35.5405 156.483 34.7886C156.634 34.0366 156.766 33.4458 156.881 33.0161L159.062 25.0132Z" fill="#3B557D"/>
</svg>
